<svg width="97" height="78" viewBox="0 0 97 78" fill="none" xmlns="http://www.w3.org/2000/svg">
<path d="M62.6422 37.1047C62.6422 36.6947 62.6022 36.3297 62.5222 36.0097C62.4522 35.6897 62.3672 35.3747 62.2672 35.0647L63.0772 33.1897C63.3972 33.8597 63.5572 34.5397 63.5572 35.2297C63.5572 35.3697 63.5522 35.5147 63.5422 35.6647C63.5322 35.8147 63.5122 35.9597 63.4822 36.0997C63.3022 37.1097 62.9322 38.0247 62.3722 38.8447C61.8222 39.6247 61.1272 40.1747 60.2872 40.4947C60.0672 40.5647 59.8572 40.6247 59.6572 40.6747C59.4572 40.7147 59.2672 40.7347 59.0872 40.7347C58.9172 40.7347 58.7522 40.7147 58.5922 40.6747C58.4322 40.6347 58.2822 40.5797 58.1422 40.5097C57.8322 40.3597 57.5822 40.1047 57.3922 39.7447C57.2122 39.3847 57.1222 38.9397 57.1222 38.4097C57.1222 37.9397 57.2272 37.3897 57.4372 36.7597C57.6572 36.1197 57.9872 35.3997 58.4272 34.5997C58.5472 34.3697 58.6772 34.1297 58.8172 33.8797C58.9672 33.6297 59.1072 33.3947 59.2372 33.1747L59.4622 33.2947C59.6622 33.4247 59.8622 33.5597 60.0622 33.6997C60.2622 33.8297 60.4622 33.9647 60.6622 34.1047C60.5822 34.2547 60.5022 34.4047 60.4222 34.5547C60.3422 34.6947 60.2622 34.8347 60.1822 34.9747C60.1022 35.1147 60.0422 35.2197 60.0022 35.2897C59.9622 35.3597 59.9222 35.4347 59.8822 35.5147C59.8422 35.5847 59.7822 35.6897 59.7022 35.8297L58.5922 35.0797C58.4622 35.3797 58.3222 35.6847 58.1722 35.9947C58.0322 36.3047 57.8922 36.6447 57.7522 37.0147C57.6822 37.1847 57.6472 37.3547 57.6472 37.5247C57.6472 37.9547 57.9072 38.2797 58.4272 38.4997C58.7472 38.5597 59.0572 38.5897 59.3572 38.5897C59.8872 38.5897 60.3822 38.4997 60.8422 38.3197C61.5622 38.0297 62.1622 37.6697 62.6422 37.2397V37.1047ZM65.7751 34.2597C65.8451 34.1197 65.9251 33.9447 66.0151 33.7347C66.1051 33.5147 66.2151 33.2647 66.3451 32.9847C66.5951 32.4347 66.8501 32.1597 67.1101 32.1597C67.2801 32.0997 67.6051 32.0797 68.0851 32.0997C68.5551 32.1097 68.7501 32.3047 68.6701 32.6847C68.6001 33.0547 68.5301 33.3397 68.4601 33.5397C68.4001 33.7397 68.3201 33.9147 68.2201 34.0647C68.1201 34.2147 67.9751 34.4047 67.7851 34.6347C67.4951 34.9847 67.0401 35.3147 66.4201 35.6247C65.8701 35.9047 65.3001 36.1197 64.7101 36.2697C64.1301 36.4197 63.5051 36.5747 62.8351 36.7347L63.1651 34.7997C64.0851 34.6897 64.9551 34.5097 65.7751 34.2597ZM70.0092 32.1847L70.9542 30.4297L71.5242 38.9647L70.5942 40.7347L70.0092 32.1847ZM79.9576 31.5397C79.7576 31.7997 79.5526 32.0547 79.3426 32.3047C79.1426 32.5647 78.9376 32.8247 78.7276 33.0847L77.6626 32.0947C77.8626 31.8347 78.0676 31.5747 78.2776 31.3147C78.4876 31.0547 78.6926 30.7997 78.8926 30.5497L79.9576 31.5397ZM79.1938 37.5397C79.1938 37.3497 79.1038 37.1997 78.9238 37.0897C78.7538 36.9697 78.5588 36.9097 78.3388 36.9097C78.2688 36.9097 78.1988 36.9147 78.1288 36.9247C78.0588 36.9347 77.9938 36.9597 77.9338 36.9997C77.5838 37.1897 77.2688 37.4247 76.9888 37.7047C76.7188 37.9847 76.4488 38.2597 76.1788 38.5297C76.7088 38.4197 77.2188 38.3047 77.7088 38.1847C78.2088 38.0647 78.6738 37.8997 79.1038 37.6897C79.1638 37.6597 79.1938 37.6097 79.1938 37.5397ZM74.2288 40.4947C74.0888 40.4947 73.9538 40.4797 73.8238 40.4497C73.7038 40.4197 73.6438 40.3497 73.6438 40.2397C73.6438 40.1797 73.6488 40.1347 73.6588 40.1047C73.4588 40.1847 73.1638 40.2697 72.7738 40.3597C72.3938 40.4497 72.0038 40.5297 71.6038 40.5997C71.2038 40.6597 70.8688 40.7047 70.5988 40.7347L70.9288 38.7547C72.7788 38.6347 73.9288 38.4497 74.3788 38.1997C74.6688 38.0397 74.8838 37.7947 75.0238 37.4647C75.0538 37.4347 75.0738 37.4197 75.0838 37.4197C75.0938 37.4197 75.0988 37.4447 75.0988 37.4947C75.0988 37.5947 75.0938 37.6547 75.0838 37.6747C75.0438 37.7947 74.9888 37.9447 74.9188 38.1247C74.8488 38.2947 74.7588 38.4997 74.6488 38.7397L74.6638 38.7547C74.9938 38.7247 75.3038 38.6797 75.5938 38.6197C76.0238 38.1197 76.4588 37.6297 76.8988 37.1497C77.3488 36.6697 77.8138 36.2047 78.2938 35.7547C78.4238 35.6347 78.6138 35.5247 78.8638 35.4247C79.1138 35.3147 79.3788 35.2597 79.6588 35.2597C79.9488 35.2597 80.1938 35.3647 80.3938 35.5747C80.6038 35.7847 80.7088 36.0297 80.7088 36.3097C80.7088 36.4897 80.6688 36.6547 80.5888 36.8047C80.3388 37.2947 80.0538 37.7347 79.7338 38.1247C79.4238 38.5047 79.0388 38.8397 78.5788 39.1297C78.3288 39.2897 78.0638 39.4397 77.7838 39.5797C77.5038 39.7197 77.2138 39.8447 76.9138 39.9547C76.7538 39.9947 76.5488 40.0497 76.2988 40.1197C76.0588 40.1797 75.8138 40.2397 75.5638 40.2997C75.3138 40.3597 75.0888 40.4047 74.8888 40.4347C74.7688 40.4547 74.6538 40.4697 74.5438 40.4797C74.4338 40.4897 74.3288 40.4947 74.2288 40.4947ZM83.9077 35.2897C83.4277 35.3797 82.9477 35.4697 82.4677 35.5597C81.9877 35.6497 81.5077 35.7397 81.0277 35.8297L81.9277 34.0447C82.4077 33.9547 82.8877 33.8647 83.3677 33.7747C83.8477 33.6847 84.3277 33.5947 84.8077 33.5047L83.9077 35.2897ZM82.222 40.2247C82.222 40.0547 82.192 39.8597 82.132 39.6397C82.082 39.4097 82.017 39.1847 81.937 38.9647C81.867 38.7447 81.807 38.5647 81.757 38.4247L82.897 36.7297L83.257 37.8397C83.347 38.0897 83.392 38.3597 83.392 38.6497C83.392 39.1597 83.242 39.7247 82.942 40.3447C82.762 40.7147 82.502 41.0597 82.162 41.3797C81.832 41.6997 81.457 41.9897 81.037 42.2497C80.627 42.4997 80.217 42.7197 79.807 42.9097C79.457 43.0697 79.102 43.2097 78.742 43.3297C78.382 43.4397 78.012 43.5297 77.632 43.5997C77.172 43.6897 76.732 43.7347 76.312 43.7347C75.852 43.7347 75.452 43.6747 75.112 43.5547C74.772 43.4247 74.567 43.1997 74.497 42.8797C74.487 42.7997 74.472 42.7197 74.452 42.6397C74.442 42.5497 74.437 42.4597 74.437 42.3697C74.437 42.0797 74.492 41.7597 74.602 41.4097C74.682 41.1397 74.777 40.8747 74.887 40.6147C74.997 40.3547 75.127 40.0997 75.277 39.8497C75.427 39.5897 75.557 39.3747 75.667 39.2047C75.787 39.0247 75.882 38.8797 75.952 38.7697C75.962 38.7497 75.982 38.7397 76.012 38.7397C76.062 38.7397 76.087 38.7547 76.087 38.7847C76.087 38.8047 76.082 38.8247 76.072 38.8447C75.642 39.6947 75.427 40.3397 75.427 40.7797C75.427 41.1797 75.552 41.4647 75.802 41.6347C76.052 41.7947 76.377 41.8747 76.777 41.8747C77.017 41.8747 77.277 41.8447 77.557 41.7847C78.237 41.6547 78.887 41.5097 79.507 41.3497C80.137 41.1897 80.727 40.9747 81.277 40.7047L82.222 40.2547V40.2247Z" fill="#B07E56"/>
<path d="M3.43 11.056V9.194C3.43 9.09133 3.39733 9.02133 3.332 8.984C3.26667 8.94667 3.18267 8.93267 3.08 8.942L0.266 9.082L0.14 8.956V8.144L0.252 8.032C0.924 8.04133 1.596 8.06467 2.268 8.102C2.94 8.13933 3.612 8.158 4.284 8.158C4.984 8.158 5.684 8.13933 6.384 8.102C7.084 8.06467 7.784 8.032 8.484 8.004L8.624 8.144V8.844L8.47 8.97C8.43267 8.97 8.302 8.97 8.078 8.97C7.86333 8.96067 7.602 8.95133 7.294 8.942C6.986 8.93267 6.67333 8.928 6.356 8.928C6.03867 8.91867 5.75867 8.914 5.516 8.914C5.41333 8.914 5.33867 8.928 5.292 8.956C5.24533 8.97467 5.222 9.03067 5.222 9.124V11.056C5.222 12.1387 5.24533 13.226 5.292 14.318C5.33867 15.41 5.39467 16.4973 5.46 17.58L3.444 18.154L3.318 17.986C3.35533 16.8287 3.38333 15.676 3.402 14.528C3.42067 13.3707 3.43 12.2133 3.43 11.056ZM10.668 17.86L8.904 18.014L8.876 17.874C9.81867 16.4647 10.724 15.0413 11.592 13.604C12.46 12.1667 13.2813 10.7013 14.056 9.208C14.0653 9.19867 14.07 9.17533 14.07 9.138C14.07 9.10067 14.056 9.082 14.028 9.082L12.712 8.914V8.382H15.848L17.402 13.604C17.5047 13.9307 17.6213 14.2993 17.752 14.71C17.8827 15.1113 18.032 15.4987 18.2 15.872C18.368 16.236 18.5547 16.5393 18.76 16.782C18.9653 17.0153 19.1847 17.132 19.418 17.132C19.5393 17.132 19.67 17.1227 19.81 17.104C19.9593 17.076 20.0993 17.048 20.23 17.02L20.328 17.412C19.9267 17.5893 19.5067 17.7667 19.068 17.944C18.6293 18.112 18.2047 18.196 17.794 18.196C17.514 18.196 17.2853 18.126 17.108 17.986C16.9307 17.8367 16.7907 17.6547 16.688 17.44C16.5853 17.2253 16.5013 17.0107 16.436 16.796L15.722 14.248H12.208C12.0493 14.5467 11.8813 14.9013 11.704 15.312C11.5267 15.7133 11.3493 16.138 11.172 16.586C10.9947 17.0247 10.8267 17.4493 10.668 17.86ZM15.288 13.52C15.3067 13.52 15.33 13.5153 15.358 13.506C15.3953 13.4873 15.414 13.4687 15.414 13.45C15.414 13.4313 15.414 13.3987 15.414 13.352C15.414 13.3053 15.4093 13.2773 15.4 13.268L14.49 10.398C14.4807 10.3513 14.462 10.3233 14.434 10.314C14.406 10.2953 14.3827 10.286 14.364 10.286C14.3267 10.286 14.2847 10.3233 14.238 10.398L12.768 13.31C12.7493 13.338 12.74 13.38 12.74 13.436C12.74 13.4547 12.7587 13.4733 12.796 13.492C12.8333 13.5107 12.866 13.52 12.894 13.52H15.288ZM21.4751 18.014V17.818C21.5778 17.678 21.6618 17.5707 21.7271 17.496C21.7925 17.412 21.8391 17.3 21.8671 17.16C21.9045 17.02 21.9231 16.8053 21.9231 16.516V10.51C21.9231 10.2953 21.9185 10.0713 21.9091 9.838C21.8998 9.60467 21.8718 9.40867 21.8251 9.25C21.7878 9.082 21.6991 8.96067 21.5591 8.886C21.4285 8.81133 21.2745 8.76 21.0971 8.732C20.9198 8.704 20.7425 8.676 20.5651 8.648V8.312L20.6491 8.228H26.4591C27.4951 8.228 28.3445 8.34933 29.0071 8.592C29.6698 8.83467 30.1831 9.166 30.5471 9.586C30.9205 9.99667 31.1771 10.468 31.3171 11C31.4665 11.5227 31.5411 12.064 31.5411 12.624C31.5411 13.324 31.4338 14.01 31.2191 14.682C31.0045 15.3447 30.6218 15.928 30.0711 16.432C29.4551 16.992 28.7411 17.398 27.9291 17.65C27.1171 17.8927 26.2818 18.014 25.4231 18.014H21.4751ZM23.6731 15.41C23.6638 15.662 23.6685 15.914 23.6871 16.166C23.7058 16.4087 23.7338 16.6513 23.7711 16.894C23.8085 17.1273 23.9485 17.272 24.1911 17.328C24.4431 17.384 24.6951 17.412 24.9471 17.412C25.5258 17.412 26.0998 17.3327 26.6691 17.174C27.2385 17.0153 27.7285 16.7447 28.1391 16.362C28.4751 16.054 28.7318 15.6993 28.9091 15.298C29.0865 14.8873 29.2078 14.458 29.2731 14.01C29.3478 13.562 29.3851 13.128 29.3851 12.708C29.3851 11.8307 29.2591 11.1353 29.0071 10.622C28.7645 10.0993 28.4331 9.712 28.0131 9.46C27.5931 9.19867 27.1218 9.03067 26.5991 8.956C26.0765 8.872 25.5351 8.83 24.9751 8.83C24.7978 8.83 24.6111 8.83467 24.4151 8.844C24.2191 8.844 24.0418 8.858 23.8831 8.886C23.7618 8.90467 23.6965 8.99333 23.6871 9.152C23.6778 9.30133 23.6731 9.56733 23.6731 9.95V15.41ZM34.0196 17.86L32.2556 18.014L32.2276 17.874C33.1702 16.4647 34.0756 15.0413 34.9436 13.604C35.8116 12.1667 36.6329 10.7013 37.4076 9.208C37.4169 9.19867 37.4216 9.17533 37.4216 9.138C37.4216 9.10067 37.4076 9.082 37.3796 9.082L36.0636 8.914V8.382H39.1996L40.7536 13.604C40.8562 13.9307 40.9729 14.2993 41.1036 14.71C41.2342 15.1113 41.3836 15.4987 41.5516 15.872C41.7196 16.236 41.9062 16.5393 42.1116 16.782C42.3169 17.0153 42.5362 17.132 42.7696 17.132C42.8909 17.132 43.0216 17.1227 43.1616 17.104C43.3109 17.076 43.4509 17.048 43.5816 17.02L43.6796 17.412C43.2782 17.5893 42.8582 17.7667 42.4196 17.944C41.9809 18.112 41.5562 18.196 41.1456 18.196C40.8656 18.196 40.6369 18.126 40.4596 17.986C40.2822 17.8367 40.1422 17.6547 40.0396 17.44C39.9369 17.2253 39.8529 17.0107 39.7876 16.796L39.0736 14.248H35.5596C35.4009 14.5467 35.2329 14.9013 35.0556 15.312C34.8782 15.7133 34.7009 16.138 34.5236 16.586C34.3462 17.0247 34.1782 17.4493 34.0196 17.86ZM38.6396 13.52C38.6582 13.52 38.6816 13.5153 38.7096 13.506C38.7469 13.4873 38.7656 13.4687 38.7656 13.45C38.7656 13.4313 38.7656 13.3987 38.7656 13.352C38.7656 13.3053 38.7609 13.2773 38.7516 13.268L37.8416 10.398C37.8322 10.3513 37.8136 10.3233 37.7856 10.314C37.7576 10.2953 37.7342 10.286 37.7156 10.286C37.6782 10.286 37.6362 10.3233 37.5896 10.398L36.1196 13.31C36.1009 13.338 36.0916 13.38 36.0916 13.436C36.0916 13.4547 36.1102 13.4733 36.1476 13.492C36.1849 13.5107 36.2176 13.52 36.2456 13.52H38.6396ZM46.3947 10.538L45.5687 17.636L44.3927 18.028L44.1967 17.958L45.2467 12.96C45.3307 12.5773 45.41 12.176 45.4847 11.756C45.5687 11.336 45.6387 10.93 45.6947 10.538C45.7507 10.146 45.7787 9.80533 45.7787 9.516C45.7787 9.28267 45.676 9.08667 45.4707 8.928C45.2654 8.76 44.9014 8.662 44.3787 8.634V8.298L44.4907 8.186H47.6407C48.098 9.45533 48.5787 10.7153 49.0827 11.966C49.5867 13.2073 50.1467 14.4393 50.7627 15.662C50.7814 15.6993 50.8094 15.718 50.8467 15.718C50.8747 15.718 50.9074 15.6993 50.9447 15.662C51.1127 15.3913 51.2947 15.0833 51.4907 14.738C51.696 14.3927 51.8967 14.0473 52.0927 13.702C52.298 13.3567 52.4847 13.0393 52.6527 12.75C52.8207 12.4513 52.956 12.2133 53.0587 12.036C53.1614 11.8493 53.2127 11.756 53.2127 11.756C53.5207 11.1773 53.8147 10.5987 54.0947 10.02C54.3747 9.44133 54.608 8.844 54.7947 8.228L57.0627 8.2L57.1467 8.368L56.8807 8.648C56.8154 8.71333 56.7734 8.82067 56.7547 8.97C56.7454 9.11 56.7407 9.34333 56.7407 9.67V11.714C56.7407 12.3393 56.7547 12.96 56.7827 13.576C56.82 14.192 56.8667 14.808 56.9227 15.424C56.96 15.76 56.9974 16.068 57.0347 16.348C57.0814 16.6187 57.1654 16.838 57.2867 17.006C57.408 17.1647 57.5994 17.244 57.8607 17.244C57.9914 17.244 58.1314 17.2393 58.2807 17.23C58.4394 17.2113 58.57 17.1973 58.6727 17.188L58.7287 17.566C58.6727 17.566 58.528 17.5987 58.2947 17.664C58.0614 17.7293 57.7907 17.8087 57.4827 17.902C57.1747 17.986 56.8807 18.0607 56.6007 18.126C56.3207 18.1913 56.1107 18.224 55.9707 18.224C55.7 18.224 55.4947 18.1447 55.3547 17.986C55.224 17.8273 55.1587 17.6547 55.1587 17.468C55.1587 17.2627 55.1587 16.95 55.1587 16.53C55.1587 16.11 55.154 15.634 55.1447 15.102C55.1447 14.57 55.1354 14.0287 55.1167 13.478C55.1074 12.9273 55.0887 12.4187 55.0607 11.952C55.042 11.4853 55.014 11.1073 54.9767 10.818C54.9394 10.5287 54.8927 10.384 54.8367 10.384C54.818 10.384 54.776 10.4353 54.7107 10.538C53.9547 11.7793 53.2454 13.016 52.5827 14.248C51.9294 15.4707 51.2667 16.726 50.5947 18.014H49.5587C49.1014 16.7353 48.6394 15.4847 48.1727 14.262C47.706 13.03 47.1927 11.7933 46.6327 10.552C46.6047 10.4867 46.5627 10.454 46.5067 10.454C46.432 10.454 46.3947 10.482 46.3947 10.538ZM66.6278 8.606L68.5878 7.962L68.7978 8.074C68.7418 8.33533 68.6951 8.61067 68.6578 8.9C68.6204 9.18 68.5924 9.46467 68.5738 9.754C68.5364 10.7153 68.5131 11.6767 68.5038 12.638C68.4944 13.59 68.4898 14.5373 68.4898 15.48C68.4898 15.7973 68.4944 16.082 68.5038 16.334C68.5224 16.5767 68.5971 16.768 68.7278 16.908C68.8584 17.048 69.1011 17.118 69.4558 17.118C69.5864 17.118 69.7218 17.1133 69.8618 17.104C70.0018 17.0853 70.1324 17.0713 70.2538 17.062L70.2678 17.314L70.1558 17.454L67.9578 18.07C67.8644 18.098 67.7711 18.1167 67.6778 18.126C67.5844 18.1353 67.4911 18.14 67.3978 18.14C67.1738 18.14 67.0151 18.07 66.9218 17.93C66.8284 17.7807 66.7584 17.622 66.7118 17.454L66.5577 17.384C66.0724 17.58 65.5684 17.7527 65.0458 17.902C64.5324 18.042 64.0144 18.112 63.4918 18.112C63.0904 18.112 62.6891 18.07 62.2878 17.986C61.8864 17.902 61.5411 17.7293 61.2518 17.468C60.9904 17.2253 60.7898 16.9313 60.6498 16.586C60.5098 16.2313 60.4164 15.858 60.3698 15.466C60.3231 15.074 60.2998 14.7053 60.2998 14.36C60.2998 13.8373 60.3138 13.2447 60.3418 12.582C60.3791 11.9193 60.3978 11.28 60.3978 10.664C60.3978 10.4027 60.3931 10.174 60.3838 9.978C60.3838 9.782 60.3698 9.55333 60.3418 9.292C60.3138 9.124 60.2204 8.998 60.0618 8.914C59.9031 8.82067 59.7211 8.75533 59.5158 8.718C59.3104 8.68067 59.1191 8.648 58.9418 8.62V8.256L59.0118 8.144H62.2178L62.3578 8.298C62.2458 9.23133 62.1711 10.1553 62.1338 11.07C62.0964 11.9753 62.0778 12.8993 62.0778 13.842C62.0778 15.046 62.3251 15.9187 62.8198 16.46C63.3238 16.992 64.0004 17.258 64.8498 17.258C65.1764 17.258 65.4984 17.2067 65.8158 17.104C66.1424 17.0013 66.4458 16.8893 66.7258 16.768C66.7258 16.0867 66.7258 15.354 66.7258 14.57C66.7258 13.786 66.7211 13.0113 66.7118 12.246C66.7118 11.4807 66.7024 10.7807 66.6838 10.146C66.6744 9.51133 66.6558 8.998 66.6278 8.606ZM70.4531 8.326L70.5651 8.214H73.3511C74.2938 9.39 75.2738 10.5473 76.2911 11.686C77.3178 12.8153 78.3538 13.9353 79.3991 15.046V8.396L80.5331 8.018L80.8131 8.214C80.7011 9.46467 80.6078 10.7153 80.5331 11.966C80.4585 13.2167 80.4211 14.4673 80.4211 15.718C80.4211 16.0913 80.4258 16.4647 80.4351 16.838C80.4445 17.202 80.4631 17.566 80.4911 17.93H79.4411L72.9591 10.72V17.524L71.8111 18.042L71.6291 17.93C71.7038 16.6233 71.7645 15.3213 71.8111 14.024C71.8671 12.7267 71.8951 11.4293 71.8951 10.132C71.8951 9.824 71.8718 9.58133 71.8251 9.404C71.7785 9.25467 71.6711 9.12867 71.5031 9.026C71.3351 8.92333 71.1531 8.844 70.9571 8.788C70.7611 8.72267 70.5931 8.67133 70.4531 8.634V8.326Z" fill="#A0E5AD" fill-opacity="0.5"/>
</svg>
