<svg xmlns="http://www.w3.org/2000/svg" xmlns:xlink="http://www.w3.org/1999/xlink" width="2500" zoomAndPan="magnify" viewBox="0 0 1874.88 1874.999927" height="2500" preserveAspectRatio="xMidYMid meet" version="1.0"><defs><g/><clipPath id="f161caee31"><rect x="0" width="964" y="0" height="519"/></clipPath></defs><g fill="#245943" fill-opacity="1"><g transform="translate(486.589311, 940.923731)"><g><path d="M 97.359375 -2.375 C 95.773438 -2.375 93.992188 -2.472656 92.015625 -2.671875 C 90.035156 -2.867188 88.054688 -3.164062 86.078125 -3.5625 C 69.054688 -7.914062 56.390625 -15.035156 48.078125 -24.921875 C 39.765625 -34.816406 35.609375 -44.117188 35.609375 -52.828125 C 35.609375 -60.742188 37.585938 -67.671875 41.546875 -73.609375 C 45.503906 -79.546875 49.066406 -84.492188 52.234375 -88.453125 L 75.984375 -118.71875 L 78.953125 -118.71875 C 85.285156 -107.632812 92.898438 -98.726562 101.796875 -92 C 110.703125 -85.28125 122.082031 -80.535156 135.9375 -77.765625 C 143.851562 -76.578125 147.8125 -73.410156 147.8125 -68.265625 C 147.8125 -65.097656 146.03125 -61.140625 142.46875 -56.390625 L 111 -10.09375 C 108.625 -6.925781 106.546875 -4.847656 104.765625 -3.859375 C 102.984375 -2.867188 100.515625 -2.375 97.359375 -2.375 Z M 97.359375 -2.375 "/></g></g></g><g fill="#245943" fill-opacity="1"><g transform="translate(332.250853, 1000.284679)"><g><path d="M 160.28125 214.296875 C 130.988281 214.296875 106.644531 207.070312 87.25 192.625 C 67.863281 178.175781 53.421875 158.785156 43.921875 134.453125 C 34.429688 110.117188 29.6875 83.304688 29.6875 54.015625 C 29.6875 15.234375 35.617188 -23.445312 47.484375 -62.03125 C 59.359375 -100.613281 73.015625 -138.503906 88.453125 -175.703125 L 107.4375 -170.359375 C 95.96875 -137.910156 85.679688 -107.632812 76.578125 -79.53125 C 67.472656 -51.4375 62.921875 -21.957031 62.921875 8.90625 C 62.921875 42.9375 73.503906 70.632812 94.671875 92 C 115.847656 113.375 145.828125 124.0625 184.609375 124.0625 C 210.734375 124.0625 236.0625 119.113281 260.59375 109.21875 C 285.125 99.332031 307.382812 84.492188 327.375 64.703125 C 347.363281 44.910156 363.289062 20.375 375.15625 -8.90625 C 383.863281 -29.875 389.601562 -53.710938 392.375 -80.421875 C 395.144531 -107.140625 396.53125 -133.5625 396.53125 -159.6875 C 396.53125 -174.71875 396.035156 -186.488281 395.046875 -195 C 394.054688 -203.507812 393.5625 -210.140625 393.5625 -214.890625 C 393.5625 -221.617188 394.945312 -227.550781 397.71875 -232.6875 C 400.488281 -237.832031 404.050781 -240.40625 408.40625 -240.40625 C 411.175781 -236.445312 414.539062 -230.410156 418.5 -222.296875 C 422.457031 -214.191406 424.4375 -202.816406 424.4375 -188.171875 C 424.4375 -151.367188 422.554688 -117.628906 418.796875 -86.953125 C 415.035156 -56.285156 408.601562 -27.300781 399.5 0 C 390.394531 27.300781 377.535156 54.609375 360.921875 81.921875 C 346.671875 105.660156 329.453125 127.519531 309.265625 147.5 C 289.085938 167.488281 266.53125 183.617188 241.59375 195.890625 C 216.664062 208.160156 189.5625 214.296875 160.28125 214.296875 Z M 160.28125 214.296875 "/></g></g></g><g fill="#245943" fill-opacity="1"><g transform="translate(739.466943, 759.872847)"><g><path d="M 10.6875 67.078125 C 6.726562 59.160156 3.757812 48.867188 1.78125 36.203125 C -0.195312 23.546875 -0.394531 11.476562 1.1875 0 C 6.726562 0.394531 14.144531 0.394531 23.4375 0 C 32.738281 -0.394531 42.734375 -2.570312 53.421875 -6.53125 C 62.523438 -10.488281 71.726562 -16.023438 81.03125 -23.140625 C 90.332031 -30.265625 99.332031 -39.960938 108.03125 -52.234375 L 170.359375 -143.65625 L 178.671875 -143.65625 C 178.671875 -139.695312 179.660156 -135.144531 181.640625 -130 C 183.617188 -124.851562 189.554688 -119.3125 199.453125 -113.375 C 208.160156 -108.226562 215.085938 -101.695312 220.234375 -93.78125 C 225.378906 -85.875 227.953125 -76.972656 227.953125 -67.078125 C 227.953125 -59.953125 226.46875 -52.429688 223.5 -44.515625 C 220.53125 -36.609375 215.484375 -28.695312 208.359375 -20.78125 L 190.546875 0 C 172.347656 -13.457031 156.125 -20.1875 141.875 -20.1875 C 133.164062 -20.1875 124.65625 -17.710938 116.34375 -12.765625 C 108.03125 -7.816406 99.722656 -0.59375 91.421875 8.90625 C 81.523438 20.382812 72.71875 30.570312 65 39.46875 C 57.28125 48.375 49.363281 55.203125 41.25 59.953125 C 33.144531 64.703125 22.957031 67.078125 10.6875 67.078125 Z M 10.6875 67.078125 "/></g></g></g><g fill="#245943" fill-opacity="1"><g transform="translate(997.093068, 1000.284679)"><g><path d="M 104.46875 0 L 103.28125 0 C 86.269531 0 73.015625 -7.414062 63.515625 -22.25 C 54.015625 -37.09375 47.679688 -58.566406 44.515625 -86.671875 C 42.140625 -107.640625 41.050781 -130.984375 41.25 -156.703125 C 41.445312 -182.429688 42.140625 -209.539062 43.328125 -238.03125 C 44.515625 -260.988281 45.40625 -279.191406 46 -292.640625 C 46.59375 -306.097656 47.484375 -317.28125 48.671875 -326.1875 C 49.859375 -335.09375 51.835938 -344.097656 54.609375 -353.203125 L 74.796875 -421.46875 L 84.890625 -419.6875 L 78.359375 -184.015625 C 77.960938 -163.835938 78.65625 -145.929688 80.4375 -130.296875 C 82.21875 -114.660156 86.960938 -102.390625 94.671875 -93.484375 C 102.390625 -84.585938 114.5625 -80.140625 131.1875 -80.140625 L 132.375 -80.140625 C 133.5625 -72.222656 133.164062 -62.820312 131.1875 -51.9375 C 129.207031 -41.050781 126.039062 -30.757812 121.6875 -21.0625 C 117.332031 -11.375 111.59375 -4.351562 104.46875 0 Z M 104.46875 0 "/></g></g></g><g fill="#245943" fill-opacity="1"><g transform="translate(1291.523371, 658.95922)"><g><path d="M 90.828125 -2.375 C 89.242188 -2.375 87.5625 -2.472656 85.78125 -2.671875 C 84 -2.867188 82.117188 -3.164062 80.140625 -3.5625 C 64.304688 -7.914062 52.53125 -14.539062 44.8125 -23.4375 C 37.09375 -32.34375 33.234375 -40.953125 33.234375 -49.265625 C 33.234375 -56.390625 35.113281 -62.820312 38.875 -68.5625 C 42.632812 -74.300781 45.898438 -78.953125 48.671875 -82.515625 L 70.640625 -111 L 73.609375 -111 C 79.546875 -100.71875 86.664062 -92.410156 94.96875 -86.078125 C 103.28125 -79.742188 113.96875 -75.191406 127.03125 -72.421875 C 134.15625 -71.234375 137.71875 -68.265625 137.71875 -63.515625 C 137.71875 -60.742188 136.132812 -57.179688 132.96875 -52.828125 L 103.28125 -9.5 C 101.300781 -6.726562 99.421875 -4.847656 97.640625 -3.859375 C 95.867188 -2.867188 93.597656 -2.375 90.828125 -2.375 Z M 90.828125 -2.375 "/></g></g></g><g fill="#245943" fill-opacity="1"><g transform="translate(1101.568374, 920.147384)"><g><path d="M 0 80.140625 C 0.789062 74.203125 2.570312 65.890625 5.34375 55.203125 C 8.113281 44.515625 11.578125 33.925781 15.734375 23.4375 C 19.890625 12.957031 23.945312 5.144531 27.90625 0 L 29.09375 0 C 43.332031 0 56.488281 -4.847656 68.5625 -14.546875 C 80.632812 -24.242188 92.207031 -37.992188 103.28125 -55.796875 L 112.1875 -55.796875 C 120.101562 -47.484375 130 -40.753906 141.875 -35.609375 C 168.78125 -88.242188 193.609375 -125.046875 216.359375 -146.015625 C 239.117188 -166.992188 259.800781 -177.484375 278.40625 -177.484375 C 291.457031 -177.484375 302.335938 -173.03125 311.046875 -164.125 C 319.753906 -155.226562 324.109375 -143.65625 324.109375 -129.40625 C 324.109375 -114.757812 321.140625 -99.222656 315.203125 -82.796875 C 309.265625 -66.378906 301.945312 -51.046875 293.25 -36.796875 C 277.019531 -9.890625 256.335938 10.582031 231.203125 24.625 C 206.078125 38.675781 180.65625 45.703125 154.9375 45.703125 C 141.875 45.703125 129.601562 43.128906 118.125 37.984375 C 106.644531 32.847656 96.753906 25.925781 88.453125 17.21875 C 76.972656 36.207031 63.316406 51.441406 47.484375 62.921875 C 31.660156 74.398438 16.226562 80.140625 1.1875 80.140625 Z M 260.59375 -121.09375 C 247.925781 -121.09375 234.960938 -116.539062 221.703125 -107.4375 C 208.453125 -98.34375 196.085938 -86.867188 184.609375 -73.015625 C 173.128906 -59.160156 163.832031 -45.113281 156.71875 -30.875 C 165.414062 -28.894531 174.515625 -27.90625 184.015625 -27.90625 C 196.679688 -27.90625 210.332031 -29.878906 224.96875 -33.828125 C 239.613281 -37.785156 253.46875 -43.921875 266.53125 -52.234375 C 279.59375 -60.546875 290.273438 -71.035156 298.578125 -83.703125 C 298.578125 -96.359375 294.617188 -105.753906 286.703125 -111.890625 C 278.796875 -118.023438 270.09375 -121.09375 260.59375 -121.09375 Z M 260.59375 -121.09375 "/></g></g></g><g fill="#245943" fill-opacity="1"><g transform="translate(1372.847847, 479.095524)"><g><path d="M 80.140625 0 C 77.367188 0 73.804688 -0.59375 69.453125 -1.78125 C 57.179688 -5.738281 47.484375 -11.773438 40.359375 -19.890625 C 33.242188 -28.003906 29.6875 -36.210938 29.6875 -44.515625 C 29.6875 -51.242188 31.460938 -57.378906 35.015625 -62.921875 C 38.578125 -68.460938 41.742188 -73.015625 44.515625 -76.578125 L 65.890625 -104.46875 L 69.453125 -104.46875 C 72.617188 -93.789062 79.046875 -85.285156 88.734375 -78.953125 C 98.429688 -72.617188 108.226562 -68.460938 118.125 -66.484375 L 157.90625 -119.90625 L 161.46875 -119.90625 C 164.625 -109.613281 170.554688 -101.695312 179.265625 -96.15625 C 187.972656 -90.625 197.273438 -86.867188 207.171875 -84.890625 C 213.898438 -83.304688 217.265625 -79.941406 217.265625 -74.796875 C 217.265625 -71.628906 215.878906 -68.066406 213.109375 -64.109375 L 184.015625 -22.5625 C 180.453125 -17.8125 176.296875 -15.4375 171.546875 -15.4375 C 168.773438 -15.4375 165.21875 -16.03125 160.875 -17.21875 C 151.375 -20.78125 143.0625 -25.226562 135.9375 -30.5625 C 128.8125 -35.90625 123.46875 -41.148438 119.90625 -46.296875 L 92.609375 -7.125 C 89.046875 -2.375 84.890625 0 80.140625 0 Z M 80.140625 0 "/></g></g></g><g fill="#245943" fill-opacity="1"><g transform="translate(1254.125929, 965.855322)"><g><path d="M 2.375 0 C -0.789062 -6.726562 -0.59375 -12.269531 2.96875 -16.625 C 6.53125 -20.976562 10.289062 -22.164062 14.25 -20.1875 C 26.90625 -20.1875 40.257812 -21.867188 54.3125 -25.234375 C 68.363281 -28.597656 82.316406 -33.242188 96.171875 -39.171875 C 115.554688 -47.484375 134.25 -57.578125 152.25 -69.453125 C 170.257812 -81.328125 186.390625 -93.59375 200.640625 -106.25 C 209.742188 -114.957031 214.988281 -121.785156 216.375 -126.734375 C 217.757812 -131.679688 218.453125 -137.914062 218.453125 -145.4375 C 218.453125 -154.144531 218.15625 -163.242188 217.5625 -172.734375 C 216.96875 -182.234375 216.671875 -193.117188 216.671875 -205.390625 C 216.671875 -224.378906 220.03125 -240.503906 226.75 -253.765625 C 233.476562 -267.023438 240.601562 -280.382812 248.125 -293.84375 L 258.8125 -290.28125 L 258.8125 -220.828125 C 258.8125 -199.453125 257.625 -182.234375 255.25 -169.171875 C 253.664062 -158.492188 250.203125 -147.117188 244.859375 -135.046875 C 239.515625 -122.972656 233.179688 -111.59375 225.859375 -100.90625 C 218.546875 -90.226562 210.929688 -81.523438 203.015625 -74.796875 C 188.765625 -62.523438 172.632812 -51.539062 154.625 -41.84375 C 136.625 -32.15625 117.929688 -23.945312 98.546875 -17.21875 C 82.316406 -12.070312 65.988281 -7.914062 49.5625 -4.75 C 33.144531 -1.582031 17.414062 0 2.375 0 Z M 2.375 0 "/></g></g></g><g transform="matrix(1, 0, 0, 1, 743, 945)"><g clip-path="url(#f161caee31)"><g fill="#b07e56" fill-opacity="1"><g transform="translate(1.09717, 287.697825)"><g><path d="M 35.875 0 L 35.875 -7.484375 L 46.796875 -8.25 C 50.253906 -8.375 51.984375 -10.675781 51.984375 -15.15625 L 51.984375 -120.453125 L 22.828125 -120.453125 L 9.203125 -89.765625 L 2.875 -89.765625 L 5.5625 -129.46875 L 118.546875 -129.46875 L 121.03125 -89.765625 L 114.703125 -89.765625 L 101.28125 -120.453125 L 72.125 -120.453125 L 72.125 -8.4375 L 87.65625 -7.484375 L 87.65625 0 Z M 35.875 0 "/></g></g></g><g fill="#b07e56" fill-opacity="1"><g transform="translate(113.887289, 287.697825)"><g><path d="M 0.953125 0 L 0.953125 -7.484375 L 6.328125 -7.859375 C 8.753906 -8.117188 10.414062 -8.441406 11.3125 -8.828125 C 12.207031 -9.210938 13.039062 -10.425781 13.8125 -12.46875 L 54.46875 -117.390625 L 49.296875 -126.984375 L 50.0625 -129.09375 C 54.15625 -129.09375 57.507812 -129.664062 60.125 -130.8125 C 62.75 -131.96875 64.703125 -133.375 65.984375 -135.03125 L 67.90625 -135.03125 L 119.3125 -8.25 L 131.578125 -7.484375 L 131.578125 0 L 80.9375 0 L 80.9375 -7.484375 L 90.53125 -7.859375 C 92.320312 -7.992188 93.789062 -8.410156 94.9375 -9.109375 C 96.09375 -9.816406 96.222656 -11.253906 95.328125 -13.421875 L 83.4375 -43.734375 L 37.59375 -43.734375 L 25.703125 -8.25 L 41.046875 -7.484375 L 41.046875 0 Z M 40.46875 -52.75 L 79.984375 -52.75 L 58.6875 -107.03125 Z M 40.46875 -52.75 "/></g></g></g><g fill="#b07e56" fill-opacity="1"><g transform="translate(246.243083, 287.697825)"><g><path d="M 4.796875 0 L 4.796875 -7.484375 L 15.734375 -8.25 C 19.179688 -8.375 20.90625 -10.675781 20.90625 -15.15625 L 20.90625 -121.421875 L 6.140625 -122 L 6.140625 -129.46875 L 61.578125 -129.46875 C 71.546875 -129.46875 80.972656 -128.0625 89.859375 -125.25 C 98.742188 -122.4375 106.609375 -118.28125 113.453125 -112.78125 C 120.296875 -107.28125 125.632812 -100.597656 129.46875 -92.734375 C 133.3125 -84.867188 135.234375 -75.820312 135.234375 -65.59375 C 135.234375 -52.425781 132.128906 -40.914062 125.921875 -31.0625 C 119.722656 -21.21875 110.960938 -13.578125 99.640625 -8.140625 C 88.328125 -2.710938 75 0 59.65625 0 Z M 62.140625 -120.453125 C 58.054688 -120.453125 54.382812 -120.320312 51.125 -120.0625 C 47.863281 -119.8125 44.503906 -119.492188 41.046875 -119.109375 L 41.046875 -26.09375 C 41.046875 -21.226562 41.394531 -17.515625 42.09375 -14.953125 C 42.800781 -12.398438 44.59375 -10.675781 47.46875 -9.78125 C 50.351562 -8.882812 55.054688 -8.4375 61.578125 -8.4375 C 70.773438 -8.4375 79.242188 -10.382812 86.984375 -14.28125 C 94.722656 -18.1875 100.957031 -24.296875 105.6875 -32.609375 C 110.414062 -40.921875 112.78125 -51.660156 112.78125 -64.828125 C 112.78125 -77.234375 110.476562 -87.5625 105.875 -95.8125 C 101.269531 -104.0625 95.128906 -110.226562 87.453125 -114.3125 C 79.785156 -118.40625 71.347656 -120.453125 62.140625 -120.453125 Z M 62.140625 -120.453125 "/></g></g></g><g fill="#b07e56" fill-opacity="1"><g transform="translate(382.435263, 287.697825)"><g><path d="M 0.953125 0 L 0.953125 -7.484375 L 6.328125 -7.859375 C 8.753906 -8.117188 10.414062 -8.441406 11.3125 -8.828125 C 12.207031 -9.210938 13.039062 -10.425781 13.8125 -12.46875 L 54.46875 -117.390625 L 49.296875 -126.984375 L 50.0625 -129.09375 C 54.15625 -129.09375 57.507812 -129.664062 60.125 -130.8125 C 62.75 -131.96875 64.703125 -133.375 65.984375 -135.03125 L 67.90625 -135.03125 L 119.3125 -8.25 L 131.578125 -7.484375 L 131.578125 0 L 80.9375 0 L 80.9375 -7.484375 L 90.53125 -7.859375 C 92.320312 -7.992188 93.789062 -8.410156 94.9375 -9.109375 C 96.09375 -9.816406 96.222656 -11.253906 95.328125 -13.421875 L 83.4375 -43.734375 L 37.59375 -43.734375 L 25.703125 -8.25 L 41.046875 -7.484375 L 41.046875 0 Z M 40.46875 -52.75 L 79.984375 -52.75 L 58.6875 -107.03125 Z M 40.46875 -52.75 "/></g></g></g><g fill="#b07e56" fill-opacity="1"><g transform="translate(514.79107, 287.697825)"><g><path d="M 2.875 0 L 2.875 -7.484375 L 13.8125 -8.625 C 15.726562 -8.882812 17.035156 -9.523438 17.734375 -10.546875 C 18.441406 -11.566406 18.859375 -13.226562 18.984375 -15.53125 L 25.703125 -119.109375 L 25.703125 -120.84375 L 11.515625 -121.421875 L 11.515625 -129.46875 L 42.96875 -129.46875 L 85.734375 -30.3125 L 127.171875 -129.46875 L 159.59375 -129.46875 L 159.59375 -122.375 L 148.65625 -121.609375 C 146.863281 -121.484375 145.613281 -121.128906 144.90625 -120.546875 C 144.207031 -119.972656 143.921875 -118.859375 144.046875 -117.203125 L 151.34375 -8.4375 L 166.875 -7.484375 L 166.875 0 L 115.09375 0 L 115.09375 -7.484375 L 126.015625 -8.25 C 129.859375 -8.375 131.585938 -10.675781 131.203125 -15.15625 L 125.453125 -99.9375 L 80.9375 0 L 78.0625 0 L 33.375 -98.96875 L 30.5 -8.4375 L 46.03125 -7.484375 L 46.03125 0 Z M 2.875 0 "/></g></g></g><g fill="#b07e56" fill-opacity="1"><g transform="translate(684.551757, 287.697825)"><g><path d="M 70.78125 2.875 C 60.550781 2.875 52.015625 1.273438 45.171875 -1.921875 C 38.328125 -5.117188 32.921875 -9.207031 28.953125 -14.1875 C 24.992188 -19.175781 22.179688 -24.546875 20.515625 -30.296875 C 18.859375 -36.054688 18.03125 -41.492188 18.03125 -46.609375 L 18.03125 -121.421875 L 3.84375 -122 L 3.84375 -129.46875 L 54.859375 -129.46875 L 54.859375 -122.953125 L 43.34375 -122.1875 C 39.894531 -122.0625 38.171875 -119.757812 38.171875 -115.28125 L 38.171875 -49.484375 C 38.171875 -42.191406 39.414062 -35.601562 41.90625 -29.71875 C 44.40625 -23.84375 48.273438 -19.175781 53.515625 -15.71875 C 58.753906 -12.269531 65.40625 -10.546875 73.46875 -10.546875 C 87.144531 -10.546875 96.828125 -13.96875 102.515625 -20.8125 C 108.210938 -27.65625 111.0625 -36.832031 111.0625 -48.34375 L 110.09375 -121.421875 L 94.75 -122 L 94.75 -129.46875 L 137.90625 -129.46875 L 137.90625 -122.953125 L 129.09375 -122.1875 C 125.769531 -121.800781 124.039062 -119.5 123.90625 -115.28125 L 122 -47.765625 C 121.738281 -38.171875 119.753906 -29.535156 116.046875 -21.859375 C 112.335938 -14.191406 106.742188 -8.148438 99.265625 -3.734375 C 91.785156 0.671875 82.289062 2.875 70.78125 2.875 Z M 70.78125 2.875 "/></g></g></g><g fill="#b07e56" fill-opacity="1"><g transform="translate(826.306679, 287.697825)"><g><path d="M 3.453125 0 L 3.453125 -7.484375 L 14.390625 -8.25 C 17.835938 -8.375 19.5625 -10.675781 19.5625 -15.15625 L 20.90625 -111.25 C 18.09375 -114.570312 15.597656 -117.160156 13.421875 -119.015625 C 11.253906 -120.867188 8.0625 -122.4375 3.84375 -123.71875 L 3.84375 -129.46875 L 32.609375 -129.46875 L 108.1875 -36.640625 L 106.265625 -120.84375 L 90.734375 -121.421875 L 90.734375 -129.46875 L 134.65625 -129.46875 L 134.65625 -122.375 L 123.71875 -121.609375 C 120.269531 -121.484375 118.546875 -119.179688 118.546875 -114.703125 L 117 -14.1875 L 117 0 L 111.0625 0 L 29.546875 -100.515625 L 31.453125 -8.4375 L 47 -7.484375 L 47 0 Z M 3.453125 0 "/></g></g></g></g></g></svg>